<svg xmlns="http://www.w3.org/2000/svg" viewBox="0 0 640 400" role="img" aria-labelledby="title desc">
  <title id="title">The science of LLM reinforcement learning</title>
  <desc id="desc">Four connected questions form the learning loop from experience to policy update.</desc>
  <rect width="640" height="400" fill="#eeeae3"/>
  <g fill="#fffefa" stroke="#34312f" stroke-width="2.5">
    <rect x="58" y="75" width="210" height="92"/><rect x="372" y="75" width="210" height="92"/>
    <rect x="372" y="233" width="210" height="92"/><rect x="58" y="233" width="210" height="92"/>
  </g>
  <g fill="none" stroke="#34312f" stroke-width="2.5">
    <path d="M268 121h104"/><path d="m359 108 14 13-14 13"/>
    <path d="M477 167v66"/><path d="m464 220 13 14 13-14"/>
    <path d="M372 279H268"/><path d="m281 266-14 13 14 13"/>
    <path d="M163 233v-66"/><path d="m150 180 13-14 13 14"/>
  </g>
  <g fill="#34312f" font-family="IBM Plex Mono, monospace" font-size="15" text-anchor="middle">
    <text x="163" y="126">EXPERIENCE</text>
    <text x="477" y="126">ROLLOUT</text>
    <text x="477" y="284">CREDIT</text>
    <text x="163" y="284">UPDATE</text>
  </g>
  <g fill="#d97757"><circle cx="320" cy="121" r="7"/><circle cx="477" cy="200" r="7"/><circle cx="320" cy="279" r="7"/><circle cx="163" cy="200" r="7"/></g>
</svg>
